# xmcd
#
# Track frame offsets:
# 182
# 16377
# 32660
# 49900
# 65147
# 82575
# 99870
# 117690
# 137302
# 152172
# 173952
# 188435
#
# Disc length: 2663 seconds
#
#
# Revision: 0
# Processed by: cddbd v1.5.1PL2 Copyright (c) Steve Scherf et al.
# Submitted via: FreeRIP 2.945 
#
DISCID=910a650c
DTITLE=Milionário and José Rico - Popularidade
DYEAR=1996
DGENRE=Sertaneja
TTITLE0=Viva a vida
TTITLE1=Sonho de um caminhoneiro
TTITLE2=Meu mundo vazio (Sereia)
TTITLE3=Duas camisas
TTITLE4=Tribunal do amor
TTITLE5=Praia deserta
TTITLE6=Vontade dividida
TTITLE7=Sonhei com você
TTITLE8=Cabecinha no ombro
TTITLE9=Lembrança
TTITLE10=Paixão de um homem
TTITLE11=O tropeiro (El Bandolero)
EXTD=
EXTT0=
EXTT1=
EXTT2=
EXTT3=
EXTT4=
EXTT5=
EXTT6=
EXTT7=
EXTT8=
EXTT9=
EXTT10=
EXTT11=
PLAYORDER=
